<?xml version="1.0" encoding="UTF-8"?>
<svg width="2444px" height="1513px" viewBox="0 0 2444 1513" version="1.1" xmlns="http://www.w3.org/2000/svg" xmlns:xlink="http://www.w3.org/1999/xlink">
    <!-- Generator: Sketch 50.2 (55047) - http://www.bohemiancoding.com/sketch -->
    <title>przepiorki</title>
    <desc>Created with Sketch.</desc>
    <defs></defs>
    <g id="Page-1" stroke="none" stroke-width="1" fill="none" fill-rule="evenodd">
        <g id="przepiorki">
            <path d="M1508.5,730.5 L1508.5,849.5 L1666.75408,849.5 L1726.69687,771.722289 L1666.84448,730.5 L1508.5,730.5 Z" id="hit_1" stroke="#979797" fill-opacity="0.1" fill="#EE1D1D"></path>
            <path d="M1695,792.5 C1695,792.5 1683.2,815.8 1677.9,822.4 C1672.6,829 1656.7,836.9 1646.3,839.5 C1635.9,842.1 1613.4,845 1603.5,845 C1593.6,845 1571.5,831 1571.5,831 C1571.5,831 1556.5,825.7 1551.2,827 C1545.9,828.3 1539,832.5 1539,832.5 C1539,832.5 1550.5,804.8 1556.5,797.5 C1562.5,790.2 1591.8,771.3 1612.5,767 C1633.2,762.7 1645.2,764.8 1656.9,766 C1664,766.8 1663.5,766.8 1671.6,768.4 C1678.4,764.1 1688.2,762.2 1688.2,762.2 C1697.8,760.6 1710.8,767.1 1711.6,775.1 C1712.3,782.8 1699.9,791.1 1695,792.5 Z" id="highlight_1" stroke="#000000"></path>
            <path d="M1665.5,854.218306 L1665.5,936.448953 L1965.1155,907.277072 L1965.1155,744.831254 L1743.30305,782.104762 L1665.5,854.218306 Z" id="hit_2" stroke="#979797" fill-opacity="0.1" fill="#DB0909"></path>
            <path d="M1667.7,866 C1667.7,866 1681,848.3 1685.7,843.7 C1690.4,839 1717.9,819.3 1721.7,817.7 C1725.5,816.1 1749.2,805.9 1756.7,805.7 C1764.8,805.5 1783.4,807 1794,809.4 C1798.2,810.3 1823.8,789.1 1833.7,785.1 C1843.5,781.1 1872.9,777.5 1880,778.4 C1887.2,779.3 1901.2,785.3 1903.3,785.7 C1905.5,786.1 1928.1,783.6 1933.6,783.4 C1939.2,783.2 1946.7,787.4 1948.9,789.4 C1951.2,791.4 1951.2,795.5 1952.2,797.1 C1953.3,798.7 1956.5,803.6 1956.5,803.6 C1956.5,803.6 1952.2,802.8 1951.2,803.6 C1950.2,804.4 1939.3,811.1 1938.6,812.9 C1937.9,814.7 1935.5,822.9 1932.1,828.8 C1928.7,834.7 1913.5,845.8 1906.7,848.2 C1902.1,849.8 1886.4,857.4 1880.4,858.5 C1874.4,859.6 1851.7,856.6 1852.1,858.5 C1852.5,860.4 1854.5,865.2 1853.8,869.9 C1853.1,874.6 1849.8,880.3 1849.8,880.3 L1846.5,890.6 C1846.5,890.6 1844.5,884.6 1843.5,883.6 C1842.5,882.6 1828.5,882.2 1827.2,882.9 C1825.9,883.7 1818.6,887.6 1816.7,888 C1812.9,888.7 1779.4,886 1777.7,886.5 C1776,887 1767.2,890.9 1767.1,891.9 C1767,892.9 1770.5,900.5 1770.5,900.5 C1770.5,900.5 1775.2,904 1778.6,907.7 C1780.3,909.3 1778.3,910.6 1777.5,910.6 C1775.6,910.6 1751.6,893.3 1752.2,892.3 C1752.8,891.4 1757.4,889 1756.8,888.8 C1756.2,888.6 1744.9,884.2 1742.6,884.2 C1740.2,884.2 1731.5,884.4 1730,884.3 C1728.5,884.1 1721.5,879.6 1720.3,880 C1719.1,880.4 1718,882.6 1717.9,883.6 C1717.8,884.6 1723.4,893.7 1722.8,895 C1722.2,896.3 1710.7,885.1 1710.9,883.5 C1711.1,881.9 1711.8,871 1711.5,869.9 C1711.2,868.8 1709.2,864.1 1706.9,863.6 C1704.6,863.1 1697.6,862.4 1696.1,862.5 C1694.9,862.4 1667.7,866 1667.7,866 Z" id="highlight_2" stroke="#000000"></path>
            <path d="M1535.00311,990.620637 L1535.00311,1268.62966 L1780.03942,1292.78912 L1876.5,1161.02891 L1876.5,948.5 L1641.24598,948.5 L1535.00311,990.620637 Z" id="hit_3" stroke="#979797" fill-opacity="0.1" fill="#F50404"></path>
            <path d="M1734,971.2 C1726.9,970.7 1720.7,965.8 1715.7,965.9 C1710.8,966.1 1696,968.5 1687.9,969.8 C1679.8,971.1 1650.3,982.7 1648.6,983.2 C1646.9,983.7 1637.2,982.5 1635.1,984.3 C1632.9,986.1 1631.9,989 1631.8,991.5 C1631.7,994 1633.4,995.1 1633.6,996.9 C1633.8,998.7 1622.1,1002.9 1622,1005.5 C1621.9,1008.1 1621.4,1017.2 1620.5,1019.5 C1619.6,1021.8 1612.7,1026.4 1610.7,1028.9 C1608.7,1031.4 1599.9,1046.7 1599.9,1050.2 C1599.9,1053.7 1601.4,1058.7 1601.6,1059.5 C1601.8,1060.3 1592.4,1063.1 1591.2,1065.5 C1590,1068 1593.2,1073.4 1592,1076.3 C1590.7,1077.7 1583.3,1080.4 1583.1,1081.2 C1582.9,1082 1586.6,1086.1 1586.3,1087.2 C1586,1088.3 1571.5,1093.6 1571.5,1094.5 C1571.5,1095.4 1570.2,1101.6 1569.8,1102.8 C1569.5,1104 1565.5,1107.2 1565.5,1108.3 C1565.5,1109.4 1565.4,1113.1 1563.9,1115.1 C1562.8,1116.2 1551.4,1128.8 1549.9,1129.5 C1548.5,1130.1 1544,1130.4 1543.6,1131.5 C1543.2,1132.6 1544.5,1136.8 1544.1,1138.2 C1543.7,1139.6 1541.5,1141.3 1541.8,1142.3 C1542.2,1143.2 1546,1145.8 1547.4,1147.2 C1548.8,1148.6 1567.9,1157.5 1571,1158.6 C1574.1,1159.7 1594.6,1159.3 1596.1,1159.3 C1597.6,1159.3 1601.9,1155.8 1602.8,1154.8 C1603.6,1153.8 1602.7,1148.5 1603.6,1147.5 C1604.5,1146.5 1607.7,1142.4 1609.1,1142.7 C1610.5,1142.9 1616.2,1143.8 1618.8,1144.7 C1621.4,1145.6 1625.8,1148 1625.8,1148.7 C1625.9,1149.4 1625,1152.7 1622.9,1154.2 C1620.9,1155.7 1613,1159 1611.4,1160 C1609.8,1161 1606.9,1163.7 1605.9,1166.8 C1604.9,1169.9 1604.2,1175.4 1604.3,1176.8 C1604.4,1178.2 1604.9,1188.7 1605.4,1188.5 C1605.9,1188.3 1613.9,1188.3 1614,1188.7 C1614,1189.1 1614.5,1195.3 1615.2,1196 C1615.9,1196.7 1621.7,1194.3 1622.1,1195 C1622.6,1195.7 1621.5,1199.9 1622.6,1200.6 C1623.7,1201.3 1642.5,1201.7 1647.5,1199.7 C1651.3,1198.2 1655.5,1194.7 1657.5,1193 C1659.5,1191.3 1662.8,1185.1 1663.4,1185.1 C1664,1185.1 1665.2,1187.9 1665.5,1188.9 C1665.8,1189.9 1662.4,1195.2 1663.1,1196 C1664.9,1196.6 1672.2,1201.2 1674,1203.6 C1675.8,1206 1676.9,1207.1 1677.4,1208.9 C1677.9,1210.7 1679.4,1215.4 1679.3,1217.5 C1679.2,1219.6 1676.4,1228.1 1675,1229.4 C1673.6,1230.7 1670.6,1232.7 1670.2,1233.2 C1669.8,1233.7 1666.6,1255.4 1667.1,1255.9 C1667.6,1256.4 1669.8,1257.5 1670.3,1257.4 C1670.8,1257.3 1673.4,1255.4 1674.1,1254.5 C1674.8,1253.6 1676.1,1251.4 1677.2,1251.7 C1678.3,1252 1686.5,1261.2 1687,1261.9 C1687.5,1262.6 1693.5,1265.6 1694.1,1265.7 C1694.7,1265.8 1697.9,1266.3 1701.8,1266.6 C1702.5,1266.7 1705.1,1258.8 1705.4,1257.5 C1705.7,1256.2 1704.5,1251.1 1703.2,1250.2 C1701.6,1249.4 1692.1,1249.1 1692.1,1249.1 C1692.1,1249.1 1688.2,1248.5 1687.1,1244.7 C1686,1240.9 1686.2,1217.3 1686.2,1217.3 C1686.2,1217.3 1691,1207.5 1692,1207.2 C1693.1,1206.9 1696.8,1208.9 1697.7,1208.8 C1698.8,1208.7 1701.9,1207.6 1702.4,1207 C1703.1,1206.1 1704.7,1205.6 1705.2,1206 C1705.6,1206.3 1709.6,1211.9 1709.8,1213 C1710,1214.1 1709.6,1221.1 1710.4,1221.1 C1711.6,1220.3 1715.5,1220.1 1716.5,1220.8 C1717.5,1221.5 1722.6,1225.2 1724.8,1228.2 C1726.3,1228.4 1732.2,1227.6 1733.8,1227.8 C1735.9,1228 1739.5,1228.7 1741.4,1229.1 C1742.2,1228.9 1744.1,1224.3 1743.7,1222.8 C1743.4,1221.6 1739,1217.3 1737.6,1217.2 C1736.2,1217.1 1726.7,1220.7 1724.2,1219 C1721.7,1217.3 1713.4,1207.4 1712.8,1205.9 C1712.2,1204.4 1710.1,1201.9 1713.6,1200.1 C1717.1,1198.3 1730.1,1191.8 1734.1,1189.8 C1738.1,1187.8 1749.2,1167.5 1753.6,1166.2 C1758,1164.9 1768.7,1156.1 1771.7,1152.7 C1774.7,1149.3 1802,1119.7 1803.5,1114.8 C1805,1109.9 1812,1071 1810,1064.4 C1809.4,1060.6 1807.2,1046.5 1807.2,1046.5 C1807.2,1046.5 1807.2,1035.5 1808.3,1034 C1809.4,1032.5 1814.7,1022.6 1818.1,1022.1 C1821.4,1021.6 1826.1,1022 1826.1,1022 C1826.1,1022 1824.3,1015.2 1823,1014 C1821.7,1012.8 1817.7,1011.8 1815.3,1010.6 C1812.9,1009.4 1806.3,1003.3 1804.3,1002.6 C1802.3,1001.9 1789.7,1003.6 1787.5,1004.4 C1785.3,1005.2 1777.2,1010.9 1776.3,1012.2 C1775.4,1013.5 1771.2,1020.1 1769.4,1024.1 C1769.4,1024.1 1767.1,1021.5 1768.1,1018.1 C1769.1,1014.7 1772.5,1006.3 1773,1003.9 C1773.5,1001.5 1770.9,993.8 1771.7,992.2 C1772.5,990.6 1775,988.1 1776.7,987.7 C1778.4,987.3 1779,986.8 1781.4,987 C1783.7,987.3 1787,990.3 1787,990.3 C1787,990.3 1788.6,985.7 1787.5,983.4 C1786.3,981.1 1782.9,979.6 1782.1,977.7 C1781.3,975.8 1782.3,972.4 1780.3,968.2 C1777,963.7 1769,961.4 1769,961.4 C1769,961.4 1757,959.7 1751.5,962.3 C1746,964.9 1741.1,971.7 1734,971.2 Z" id="highlight_3" stroke="#000000"></path>
            <path d="M1094.5,876.750234 L1094.5,1080.5 L1338.5,1080.5 L1338.5,876.750234 L1094.5,876.750234 Z" id="hit_4" stroke="#979797" fill-opacity="0.1" fill="#FC0606"></path>
            <path d="M1298.6,963.4 C1292.1,973.5 1291.2,971.1 1276.5,983.4 C1265.8,992.3 1262.8,993.1 1258.8,1000.1 C1255.8,1005.4 1247.6,1001.1 1244,1004.6 C1241.4,1007.2 1242.4,1009 1240.2,1011.8 C1237.3,1015.5 1229,1010.7 1222.6,1014.6 C1220,1016.2 1216.2,1020.5 1216.3,1022.9 C1216.5,1025.3 1220.8,1028.1 1226,1033 C1230.6,1037.4 1235.8,1041.4 1240.8,1042.3 C1246.1,1043.3 1245.7,1041.7 1251.4,1044 C1254.8,1045.4 1258.2,1047.5 1258.2,1047.5 C1260.3,1049 1261.1,1050.9 1261.4,1052.2 C1261.8,1054 1262,1058.1 1259.7,1056.8 C1257.5,1055.7 1250.2,1055.3 1250.2,1055.3 C1245.7,1055.7 1244.6,1057.6 1242,1057.8 C1239.2,1057.9 1233.1,1050.3 1228.9,1046.7 C1224.7,1043.1 1224.7,1044.7 1221.5,1044.4 C1218.9,1044.1 1220.4,1040.8 1219.2,1037.6 C1216.8,1031.2 1211.2,1032.6 1206.7,1025.9 C1202.8,1020.2 1204.6,1015.6 1200.7,1013.7 C1197.7,1012.3 1194.2,1013.7 1193,1014.2 C1188.2,1016.1 1188.8,1019.3 1184.7,1021.2 C1179.7,1023.5 1176.8,1019.9 1172.2,1022.7 C1169.3,1024.4 1169,1026.7 1166.5,1026.9 C1164.1,1027.1 1163.4,1025 1160.7,1024.7 C1158,1024.4 1155.1,1026 1153.5,1028 C1150,1032.5 1153.1,1039.5 1154.7,1043.2 C1156.5,1047.4 1158.8,1049.5 1159.4,1050 C1160.3,1050.8 1162.2,1052.5 1165.1,1053.3 C1170.7,1055 1175.3,1053 1178.1,1054.6 C1180.1,1055.7 1182.4,1057.9 1181.9,1059.3 C1181.5,1060.5 1179.1,1060.5 1177.1,1060.7 C1175.2,1060.9 1158.9,1063.8 1157.9,1063.6 C1156,1063.1 1150.5,1057.9 1149.6,1056.8 C1148,1055 1147.7,1053.2 1145.7,1051.4 C1143.8,1049.7 1142.1,1050.1 1141.7,1048.9 C1141.2,1047.6 1142.9,1046.2 1144,1044.6 C1147.6,1039.3 1144.6,1029.9 1143.8,1027.4 C1141.9,1021.4 1139.6,1021.7 1140.9,1018.5 C1141.2,1017.7 1141.5,1016.9 1143.5,1013.4 C1145.2,1010.6 1145.6,1009 1145.3,1008.7 C1144.8,1008.2 1142,1011.2 1136.8,1013.5 C1134.3,1014.7 1131.5,1015.9 1127.8,1016.2 C1123.8,1016.5 1121.6,1015.4 1119.5,1017 C1117.7,1018.3 1117.5,1020.3 1117,1020.2 C1116,1020 1116.4,1013.2 1116.7,1010 C1117.3,1002.3 1118.2,997.5 1116.9,997 C1115.9,996.6 1114.8,999 1113.6,998.7 C1112.1,998.3 1111.6,993.5 1112.3,990 C1114,981.6 1122.5,979.8 1130.3,971.7 C1137.2,964.5 1137.8,958.3 1141.3,950.7 C1149.2,933.4 1154.7,929.5 1168.6,921.4 C1193.3,904.3 1248.5,895.7 1265.1,901.2 C1269.9,899.8 1277.7,893.1 1278.3,892.8 C1278.9,892.5 1285.3,887.3 1298,888.1 C1303.8,889.2 1308.5,893.6 1309.3,898.1 C1309.5,899 1309.1,899.9 1309.9,901.2 C1310.4,902.2 1314.3,903.8 1314.9,904.9 C1315.5,906 1315.1,909.2 1315.1,909.2 C1315.1,909.2 1313.4,909 1311.4,909 C1309.4,908.9 1309.3,910 1307.4,911.5 C1305.5,913 1305.1,916.6 1304.4,919.5 C1303.2,924.5 1305.3,928.3 1306.1,930.8 C1310.6,943.4 1302,958 1298.6,963.4 Z" id="highlight_4" stroke="#000000"></path>
            <rect id="frame" stroke="#979797" fill-opacity="0.1" fill="#D8D8D8" x="0.5" y="0.5" width="2443" height="1512"></rect>
        </g>
    </g>
</svg>