<?xml version="1.0" encoding="UTF-8"?>
<svg width="1875px" height="1459px" viewBox="0 0 1875 1459" version="1.1" xmlns="http://www.w3.org/2000/svg" xmlns:xlink="http://www.w3.org/1999/xlink">
    <!-- Generator: Sketch 50.2 (55047) - http://www.bohemiancoding.com/sketch -->
    <title>Witkacy</title>
    <desc>Created with Sketch.</desc>
    <defs></defs>
    <g id="Page-1" stroke="none" stroke-width="1" fill="none" fill-rule="evenodd">
        <g id="Witkacy">
            <rect id="frame" stroke="#979797" fill-opacity="0.05" fill="#D8D8D8" x="0.5" y="1.25" width="1874" height="1457"></rect>
            <path d="M856.665,77.79 C843.479,83.319 839.521,88.431 830.063,99.663 C820.605,110.895 812.328,138.68 812.328,147.547 C812.328,156.414 810.555,173.558 812.328,183.016 C814.101,192.474 826.319,213.165 834.102,227.353 C841.885,241.541 869.079,291.789 877.355,301.248 C885.631,310.707 908.686,333.762 918.736,341.447 C928.786,349.132 948.884,356.817 948.884,356.817 C948.884,356.817 930.559,343.811 925.829,331.397 C921.099,318.983 912.232,311.889 915.779,299.475 C919.326,287.061 915.188,275.829 927.602,259.868 C940.016,243.907 953.612,219.669 948.883,190.702 C944.154,161.735 945.486,162.327 949.845,145.183 C954.204,128.039 953.171,126.266 949.845,115.625 C946.519,104.984 943.848,95.525 937.498,93.752 C931.148,91.979 931.149,99.664 924.646,90.205 C918.143,80.746 918.144,76.017 905.729,73.653 C893.314,71.289 874.991,70.105 856.665,77.79 Z" id="highlight_1" stroke="#000000" stroke-width="2.8346"></path>
            <rect id="hit_1" stroke="#979797" fill-opacity="0.2" fill="#71CF24" x="735.5" y="74.5" width="240" height="294"></rect>
            <path d="M1101.995,137.497 C1090.788,148.754 1074.211,165.282 1069.481,178.878 C1064.751,192.474 1061.795,196.021 1049.972,201.933 C1038.149,207.845 1030.463,208.435 1022.779,224.397 C1015.095,240.359 1013.321,258.093 1011.548,276.419 C1009.775,294.745 1012.139,315.435 1011.548,331.397 C1010.957,347.359 1010.364,350.905 1003.862,363.319 C997.36,375.733 990.265,379.28 1003.862,390.512 C1017.459,401.744 1028.691,408.838 1052.928,407.656 C1077.165,406.474 1090.17,402.335 1110.27,389.33 C1130.37,376.325 1146.331,366.866 1158.154,350.314 C1169.977,333.762 1178.254,319.573 1184.757,304.204 C1191.26,288.835 1191.852,284.696 1191.26,267.553 C1190.668,250.41 1194.807,240.951 1195.398,229.719 C1195.989,218.487 1197.762,216.714 1187.122,203.117 C1176.482,189.52 1171.751,184.2 1163.476,172.377 C1155.201,160.554 1150.47,145.184 1132.736,137.499 C1115.002,129.814 1106.702,132.769 1101.995,137.497 Z" id="highlight_2" stroke="#000000" stroke-width="2.8346"></path>
            <rect id="hit_2" stroke="#979797" fill-opacity="0.2" fill="#63D54D" x="995.5" y="110.5" width="240" height="312"></rect>
            <path d="M543.789,369.301 C531.132,370.119 503.764,370.302 486.911,380.861 C470.058,391.42 459.525,393.573 444.779,407.77 C430.033,421.967 400.54,454.618 393.167,461.991 C385.794,469.364 381.582,477.791 386.848,478.844 C392.114,479.897 379.474,478.737 377.368,493.536 C375.262,508.335 372.101,523.082 362.622,534.668 C353.143,546.254 347.876,556.787 348.929,562.054 C349.982,567.321 346.823,564.012 341.556,571.986 C336.289,579.96 338.396,577.853 341.556,587.333 C344.716,596.813 349.982,619.986 349.982,624.199 C349.982,628.412 356.302,623.146 359.462,632.625 C362.622,642.104 366.835,652.637 369.995,663.17 C373.155,673.703 402.647,717.941 410.02,723.208 C417.393,728.475 422.66,733.742 421.606,737.955 C420.552,742.168 419.499,742.168 427.925,743.221 C436.352,744.276 429.984,740.061 441.068,735.848 C452.152,731.635 475.614,736.869 506.923,728.986 C538.232,721.102 548.002,714.783 548.002,714.783 L558.535,728.986 C558.535,728.986 561.695,722.156 571.175,713.729 C580.655,705.302 590.134,695.823 606.987,696.876 C623.84,697.929 630.16,695.823 639.639,703.196 C649.118,710.569 657.545,712.675 665.972,713.729 C674.399,714.783 680.719,711.623 684.931,700.036 C689.143,688.449 684.931,666.33 684.931,666.33 C684.931,666.33 680.718,674.756 672.291,682.129 C663.864,689.502 654.385,692.662 650.172,685.289 C645.959,677.916 644.905,673.703 636.479,673.703 C628.053,673.703 619.626,661.537 627,650.241 C634.374,638.945 635.426,621.039 647.013,614.719 C658.6,608.399 656.493,605.239 665.972,608.399 C675.451,611.559 686.804,608.399 686.804,608.399 C686.804,608.399 680.718,598.919 674.398,593.653 C668.078,588.387 663.866,587.334 650.172,595.76 C636.478,604.186 610.147,622.092 610.147,622.092 C610.147,622.092 613.306,629.465 609.093,641.051 C604.88,652.637 592.241,659.054 579.601,656.373 C566.961,653.692 559.588,642.104 544.842,641.051 C530.096,639.998 517.456,645.264 521.67,625.252 C525.884,605.24 533.256,593.653 543.789,590.493 C554.322,587.333 554.322,588.387 564.855,590.493 C575.388,592.599 578.548,589.44 577.495,585.226 C576.442,581.012 580.655,588.386 584.868,587.332 C589.081,586.278 597.507,564.161 600.667,562.054 C603.827,559.947 614.36,543.095 617.52,536.775 C620.68,530.455 622.787,518.869 633.319,504.123 C643.851,489.377 652.278,438.819 634.372,415.646 C616.466,392.473 594.347,380.861 594.347,380.861 C594.347,380.861 582.761,374.568 578.548,369.301 C574.335,364.034 555.463,368.546 543.789,369.301 Z" id="highlight_3"></path>
            <rect id="hit_3" stroke="#979797" fill-opacity="0.2" fill="#3FCA4C" x="313.5" y="363.5" width="387" height="372"></rect>
            <path d="M1443.418,311.841 C1451.272,303.987 1445.231,322.111 1445.231,322.111 C1443.418,326.944 1451.877,322.111 1447.044,330.568 C1442.211,339.025 1441.606,342.045 1441.606,346.879 C1441.606,351.711 1443.419,348.087 1433.149,359.565 C1422.879,371.043 1417.567,383.819 1419.983,397.11 C1422.399,410.399 1432.545,418.766 1436.17,421.786 C1439.795,424.806 1437.241,460.339 1445.026,483.898 C1452.811,507.457 1458.52,530.52 1469.394,535.353 C1480.268,540.186 1482.684,534.749 1485.705,530.52 C1488.726,526.291 1487.517,525.688 1496.578,529.313 C1505.64,532.937 1511.681,540.186 1515.909,551.059 C1520.137,561.932 1523.762,575.827 1531.011,582.471 C1538.26,589.117 1541.282,598.178 1549.134,596.969 C1556.987,595.761 1558.798,593.949 1556.987,589.721 C1555.176,585.493 1562.424,593.564 1567.257,597.078 C1572.09,600.594 1572.695,601.198 1575.111,599.99 C1577.527,598.781 1575.715,600.594 1575.111,607.238 C1574.507,613.882 1573.298,613.883 1579.34,616.904 C1585.381,619.924 1583.569,621.736 1590.818,626.569 C1598.067,631.402 1600.483,630.194 1605.316,629.59 C1610.149,628.986 1604.108,625.361 1605.316,622.945 C1606.524,620.528 1605.316,625.965 1618.002,633.215 C1630.688,640.463 1649.414,657.377 1664.517,653.753 C1679.62,650.129 1686.264,638.651 1686.264,629.59 C1686.264,620.529 1690.493,617.508 1683.243,599.385 C1675.994,581.264 1675.389,584.283 1668.745,573.41 C1662.1,562.536 1654.851,564.348 1660.288,552.267 C1665.725,540.185 1664.517,542.601 1673.578,541.997 C1682.639,541.393 1683.244,537.164 1683.848,529.915 C1684.452,522.666 1683.279,511.188 1687.49,506.355 C1691.701,501.522 1694.117,500.918 1695.929,500.315 C1697.742,499.711 1709.829,511.151 1720.636,513.61 C1742.449,518.571 1745.463,518.436 1756.337,516.625 C1767.211,514.814 1773.251,509.979 1776.272,505.147 C1779.293,500.315 1777.481,501.522 1788.959,501.522 C1800.437,501.522 1807.686,497.899 1813.727,490.045 C1819.768,482.191 1828.224,470.714 1827.016,456.82 C1825.808,442.925 1825.204,418.762 1819.163,409.097 C1813.122,399.431 1804.06,386.141 1801.04,377.079 C1798.019,368.018 1798.625,360.769 1791.979,346.876 C1785.333,332.981 1775.064,320.901 1772.043,312.443 C1769.022,303.985 1766.003,314.255 1764.19,297.34 C1762.377,280.425 1756.336,287.674 1759.357,276.197 C1762.378,264.72 1767.211,245.993 1753.92,262.907 C1740.629,279.821 1736.401,259.741 1727.944,245.618 C1719.487,231.495 1720.837,231.937 1706.801,216.392 C1693.264,201.399 1685.054,197.665 1685.054,197.665 C1685.054,197.665 1682.033,203.102 1680.825,207.331 C1679.617,211.56 1662.702,197.062 1648.204,183.168 C1633.706,169.274 1609.542,154.171 1593.232,148.735 C1576.922,143.299 1572.089,143.902 1564.84,139.674 C1557.591,135.446 1555.779,136.653 1550.946,139.674 C1546.113,142.695 1544.905,137.825 1534.635,136.937 C1524.365,136.049 1521.949,132.992 1517.721,136.937 C1513.493,140.882 1514.7,136.91 1507.451,134.969 C1500.202,133.028 1495.973,131.217 1491.14,120.947 C1486.307,110.677 1485.302,116.716 1474.351,125.924 C1462.681,135.737 1466.977,132.484 1449.458,130.642 C1431.939,128.8 1428.92,131.216 1421.066,134.237 C1413.212,137.258 1403.547,137.257 1396.298,134.237 C1389.049,131.217 1397.506,124.571 1381.8,123.363 C1366.094,122.155 1358.844,129.404 1355.22,125.78 C1351.596,122.156 1343.139,105.241 1343.139,103.429 C1343.139,101.617 1341.93,112.49 1335.285,118.531 C1328.64,124.572 1324.412,130.613 1319.579,123.968 C1314.746,117.323 1311.122,111.886 1311.122,111.886 C1311.122,111.886 1309.309,116.719 1306.289,120.344 C1303.269,123.969 1298.436,127.593 1293.603,122.156 C1288.77,116.719 1282.73,114.907 1271.856,114.303 C1260.982,113.699 1253.129,110.074 1250.109,106.45 C1247.089,102.826 1247.088,108.263 1239.839,108.867 C1232.59,109.471 1225.945,110.679 1224.133,108.263 C1222.321,105.847 1222.32,110.68 1219.904,111.284 C1217.488,111.888 1215.675,112.492 1219.904,123.97 C1224.133,135.448 1226.549,163.235 1228.361,177.129 C1230.173,191.023 1244.671,216.999 1252.524,227.268 C1260.377,237.537 1283.937,268.949 1296.623,285.864 C1309.309,302.779 1320.183,320.297 1326.827,332.983 C1333.471,345.669 1334.68,357.147 1341.929,369.832 C1349.178,382.517 1347.366,386.746 1350.386,395.203 C1353.406,403.66 1347.365,398.224 1357.635,373.457 C1367.905,348.69 1378.175,337.212 1387.84,331.171 C1397.505,325.13 1405.359,317.276 1420.46,315.464 C1435.561,313.652 1437.981,314.861 1443.418,311.841" id="highlight_4"></path>
            <path d="M1255.52809,96.5502505 L1267.18914,330.116338 L1401.90583,405.956299 L1540.28543,674.597368 L1824.5,640.556313 L1824.5,291.533619 L1628.99949,130.619426 L1255.52809,96.5502505 Z" id="hit_4" stroke="#979797" fill-opacity="0.2" fill="#4CAB4F"></path>
            <path d="M854.565,505.698 C835.057,511.61 806.09,525.206 790.72,537.62 C775.35,550.034 762.936,563.04 763.527,582.548 C764.118,602.056 775.941,612.696 779.488,634.569 C783.035,656.442 787.764,664.717 776.532,688.955 C765.3,713.193 750.521,729.744 765.891,752.209 C781.261,774.674 799.587,794.183 817.913,793.591 C836.239,792.999 829.145,790.044 832.692,785.315 C836.239,780.586 832.692,782.95 846.289,791.226 C859.886,799.502 862.841,806.596 872.891,804.823 C882.941,803.05 881.167,808.37 879.985,792.409 C878.803,776.448 884.123,793.591 872.891,765.216 C861.659,736.841 856.338,732.714 858.703,727.388 C861.068,722.062 854.565,732.112 868.161,744.526 C881.757,756.94 887.669,766.4 897.719,771.129 C907.769,775.858 910.133,775.858 904.813,766.4 C899.493,756.942 898.901,769.946 889.443,750.438 C879.985,730.93 872.89,731.521 874.073,721.471 C875.256,711.422 853.383,713.196 884.714,719.698 C916.045,726.202 972.056,748.666 994.004,747.483 C1015.952,746.3 1025.41,749.256 1038.415,735.66 C1051.42,722.064 1050.828,711.423 1053.193,693.097 C1055.558,674.771 1048.464,668.269 1064.425,659.402 C1080.386,650.535 1079.795,655.855 1085.115,635.164 C1090.435,614.475 1090.435,577.822 1085.115,562.452 C1079.795,547.082 1084.524,535.85 1064.425,532.894 C1044.326,529.938 1035.459,529.347 1029.547,535.258 C1023.635,541.169 1028.955,541.761 1016.541,529.938 C1004.127,518.115 1001.763,508.657 973.387,500.38 C945.011,492.103 934.37,489.739 908.951,493.286 C883.532,496.831 854.565,505.698 854.565,505.698 Z" id="highlight_5"></path>
            <rect id="hit_5" stroke="#979797" fill-opacity="0.2" fill="#2BD825" x="760.5" y="498.5" width="335" height="312"></rect>
        </g>
    </g>
</svg>